#!OML:ASF H:\Terrain\Patient Classification 1\Walking\liu\liu.ASF
:FULLY-SPECIFIED
:DEGREES
92
root -2.86738 16.5141 -36.2222 2.68839 0.320668 -2.17974
lowerback 8.42033 1.92993 -1.54789
upperback -3.37058 2.49978 1.20723
thorax -8.42228 1.33954 1.75706
lowerneck -2.5614 -3.74081 -6.62301
upperneck 5.47146 -5.03758 5.93303
head 2.58236 -2.49473 2.95905
rclavicle 2.02899e-014 1.1896e-014
rhumerus -32.4108 3.35538 -80.3774
rradius 30.926
rwrist 2.43513
rhand -20.0178 -27.786
rfingers 7.12502
rthumb 6.3226 -57.6717
lclavicle 2.02899e-014 1.1896e-014
lhumerus -26.577 -4.2404 89.7026
lradius 24.8028
lwrist -30.5313
lhand -28.7953 30.1588
lfingers 7.12502
lthumb -2.15397 60.1277
rfemur -21.2534 -5.81169 13.707
rtibia 47.1486
rfoot -25.516 1.57205
rtoes -6.75839
lfemur -20.777 5.93009 -9.16692
ltibia 44.3506
lfoot -21.5458 -0.230847
ltoes -7.74442
93
root -2.86398 16.5136 -36.2176 2.76742 0.309156 -2.20779
lowerback 8.28468 1.93265 -1.55129
upperback -3.40618 2.506 1.2224
thorax -8.3829 1.34357 1.77759
lowerneck -2.56165 -3.74445 -6.58611
upperneck 5.54046 -5.04404 5.89019
head 2.60296 -2.49835 2.93722
rclavicle 5.02902e-015 1.59214e-014
rhumerus -32.4018 3.30534 -80.335
rradius 30.9101
rwrist 2.39981
rhand -19.9704 -27.6501
rfingers 7.12502
rthumb 6.36837 -57.5344
lclavicle 5.02902e-015 1.59214e-014
lhumerus -26.5991 -4.16901 89.7046
lradius 24.7975
lwrist -30.6283
lhand -28.8135 30.0885
lfingers 7.12502
lthumb -2.17155 60.0572
rfemur -21.3286 -5.82019 13.7326
rtibia 47.1474
rfoot -25.5237 1.58251
rtoes -6.78748
lfemur -20.8485 5.97678 -9.15184
ltibia 44.3602
lfoot -21.5798 -0.232085
ltoes -7.82151
94
root -2.86033 16.5132 -36.2134 2.83281 0.294201 -2.21853
lowerback 8.16792 1.93586 -1.55881
upperback -3.43831 2.51151 1.22961
thorax -8.35054 1.3472 1.79161
lowerneck -2.51832 -3.73795 -6.63277
upperneck 5.56319 -5.03985 5.94534
head 2.60624 -2.4966 2.96584
rclavicle 1.06578e-014 2.93518e-015
rhumerus -32.4072 3.33049 -80.3298
rradius 30.9171
rwrist 2.35865
rhand -19.9982 -27.8327
rfingers 7.12502
rthumb 6.3415 -57.7178
lclavicle 1.06578e-014 2.93518e-015
lhumerus -26.6226 -4.12361 89.7107
lradius 24.7953
lwrist -30.6594
lhand -28.8706 30.028
lfingers 7.12502
lthumb -2.22672 59.9961
rfemur -21.395 -5.8434 13.7369
rtibia 47.1555
rfoot -25.5342 1.60548
rtoes -6.76753
lfemur -20.9076 5.99755 -9.15417
ltibia 44.3858
lfoot -21.6207 -0.235738
ltoes -7.80704
95
root -2.85337 16.5153 -36.1986 2.84854 0.171958 -2.11519
lowerback 8.00516 1.97091 -1.67596
upperback -3.46119 2.54526 1.20593
thorax -8.2865 1.36932 1.83171
lowerneck -2.52701 -3.71109 -6.65534
upperneck 5.64808 -5.00893 6.0029
head 2.63739 -2.48028 2.99133
rclavicle 2.51381e-014 9.66901e-015
rhumerus -32.465 3.30924 -80.3162
rradius 30.9535
rwrist 2.39425
rhand -19.9844 -28.0361
rfingers 7.12502
rthumb 6.35487 -57.9208
lclavicle 2.51381e-014 9.66901e-015
lhumerus -26.6487 -4.17575 89.7465
lradius 24.7422
lwrist -30.5162
lhand -28.9118 30.0117
lfingers 7.12502
lthumb -2.26649 59.9795
rfemur -21.3773 -5.84514 13.583
rtibia 47.1565
rfoot -25.6024 1.66636
rtoes -6.85604
lfemur -20.8098 6.0181 -9.30348
ltibia 44.382
lfoot -21.6945 -0.0902532
ltoes -7.91839
96
root -2.85372 16.5121 -36.2061 2.96742 0.25288 -2.2218
lowerback 7.96913 1.94993 -1.60294
upperback -3.50196 2.52807 1.23006
thorax -8.30637 1.35835 1.81936
lowerneck -2.52963 -3.73896 -6.62172
upperneck 5.65544 -5.04543 5.96125
head 2.64004 -2.49873 2.96912
rclavicle 8.1295e-015 1.68159e-014
rhumerus -32.3973 3.24593 -80.2843
rradius 30.8626
rwrist 2.38371
rhand -20.1459 -27.6641
rfingers 7.12502
rthumb 6.19896 -57.5534
lclavicle 8.1295e-015 1.68159e-014
lhumerus -26.6755 -4.10451 89.7375
lradius 24.8421
lwrist -30.5077
lhand -28.893 30.0096
lfingers 7.12502
lthumb -2.24838 59.9775
rfemur -21.5496 -5.84894 13.7314
rtibia 47.184
rfoot -25.5608 1.58117
rtoes -6.87035
lfemur -21.0224 5.96537 -9.1851
ltibia 44.4135
lfoot -21.6632 -0.113531
ltoes -7.9219
97
root -2.84999 16.5117 -36.2016 3.00885 0.237627 -2.22817
lowerback 7.87635 1.94791 -1.61237
upperback -3.53841 2.52547 1.22807
thorax -8.29187 1.35794 1.82522
lowerneck -2.50616 -3.73717 -6.64657
upperneck 5.73326 -5.04816 5.99441
head 2.6644 -2.5003 2.98568
rclavicle -1.01803e-014 -5.10007e-015
rhumerus -32.4387 3.22631 -80.2802
rradius 30.8675
rwrist 2.41075
rhand -20.1227 -27.6262
rfingers 7.12502
rthumb 6.2214 -57.5149
lclavicle -1.01803e-014 -5.10007e-015
lhumerus -26.743 -4.12078 89.7508
lradius 24.8701
lwrist -30.401
lhand -28.841 30.1837
lfingers 7.12502
lthumb -2.19813 60.1522
rfemur -21.5858 -5.87125 13.7253
rtibia 47.1986
rfoot -25.5772 1.59676
rtoes -6.91774
lfemur -21.0357 5.92761 -9.1905
ltibia 44.4169
lfoot -21.6799 -0.0728274
ltoes -7.89932
98
root -2.84883 16.5104 -36.1979 3.07088 0.183292 -2.19282
lowerback 7.75486 1.96751 -1.70802
upperback -3.55019 2.54221 1.22335
thorax -8.23901 1.37111 1.87493
lowerneck -2.5444 -3.76204 -6.61951
upperneck 5.79089 -5.08082 5.96399
head 2.69108 -2.51624 2.96842
rclavicle 3.18204e-014 2.04997e-015
rhumerus -32.4061 3.24029 -80.292
rradius 30.831
rwrist 2.4776
rhand -20.2442 -27.6867
rfingers 7.12502
rthumb 6.10405 -57.5788
lclavicle 3.18204e-014 2.04997e-015
lhumerus -26.736 -4.09675 89.7546
lradius 24.8905
lwrist -30.346
lhand -28.8271 30.1745
lfingers 7.12502
lthumb -2.18474 60.1431
rfemur -21.6712 -5.7949 13.6859
rtibia 47.2286
rfoot -25.5919 1.59499
rtoes -6.81097
lfemur -21.07 5.90079 -9.2315
ltibia 44.4363
lfoot -21.7045 -0.0662197
ltoes -7.62356
99
root -2.84565 16.5106 -36.1935 3.10493 0.164113 -2.18526
lowerback 7.69258 1.9765 -1.72909
upperback -3.58026 2.55227 1.21485
thorax -8.23629 1.37727 1.8777
lowerneck -2.5798 -3.78235 -6.62117
upperneck 5.89341 -5.10972 5.96389
head 2.7345 -2.53031 2.96737
rclavicle -3.29785e-014 -1.72818e-014
rhumerus -32.4483 3.18593 -80.2814
rradius 30.824
rwrist 2.53727
rhand -20.1142 -27.7
rfingers 7.12502
rthumb 6.22956 -57.5884
lclavicle -3.29785e-014 -1.72818e-014
lhumerus -26.781 -4.16189 89.7817
lradius 24.9241
lwrist -30.2289
lhand -28.7906 30.385
lfingers 7.12502
lthumb -2.14949 60.3539
rfemur -21.7 -5.78777 13.667
rtibia 47.24
rfoot -25.6114 1.62202
rtoes -6.72687
lfemur -21.0904 5.8664 -9.25965
ltibia 44.4286
lfoot -21.6932 0.0889646
ltoes -7.97054
100
root -2.84139 16.5109 -36.1902 3.14896 0.15967 -2.15177
lowerback 7.60966 1.98313 -1.76379
upperback -3.59687 2.55721 1.19797
thorax -8.20696 1.38113 1.88091
lowerneck -2.63808 -3.81142 -6.58289
upperneck 5.99443 -5.14804 5.91878
head 2.77903 -2.54896 2.94251
rclavicle -1.12053e-014 -4.32357e-015
rhumerus -32.4072 3.12253 -80.2584
rradius 30.7469
rwrist 2.58862
rhand -19.9655 -27.8453
rfingers 7.12502
rthumb 6.37315 -57.7294
lclavicle -1.12053e-014 -4.32357e-015
lhumerus -26.7723 -4.19679 89.8022
lradius 24.9188
lwrist -30.177
lhand -28.7157 30.4258
lfingers 7.12502
lthumb -2.0771 60.3954
rfemur -21.7353 -5.82666 13.6157
rtibia 47.2509
rfoot -25.6273 1.61655
rtoes -6.96515
lfemur -21.1268 5.83853 -9.32307
ltibia 44.4261
lfoot -21.6972 0.191058
ltoes -8.28442
101
root -2.83877 16.5096 -36.1855 3.1834 0.133854 -2.16468
lowerback 7.53652 2.00431 -1.75798
upperback -3.60956 2.58572 1.17734
thorax -8.17811 1.39413 1.85367
lowerneck -2.71331 -3.85127 -6.53992
upperneck 6.08608 -5.20245 5.91324
head 2.82619 -2.57415 2.92951
rclavicle -7.08714e-015 9.54166e-015
rhumerus -32.3667 3.00047 -80.2496
rradius 30.6601
rwrist 2.64359
rhand -19.94 -27.7992
rfingers 7.12502
rthumb 6.39769 -57.6826
lclavicle -7.08714e-015 9.54166e-015
lhumerus -26.7672 -4.27224 89.7989
lradius 24.9286
lwrist -30.1766
lhand -28.6657 30.4142
lfingers 7.12502
lthumb -2.02881 60.3843
rfemur -21.7616 -5.80021 13.621
rtibia 47.2507
rfoot -25.6406 1.6373
rtoes -6.88349
lfemur -21.1443 5.82406 -9.31322
ltibia 44.4355
lfoot -21.7166 0.226092
ltoes -8.32621
102
root -2.83539 16.509 -36.1835 3.2237 0.143825 -2.20436
lowerback 7.49866 1.99097 -1.74427
upperback -3.64755 2.57152 1.19601
thorax -8.19662 1.38762 1.86841
lowerneck -2.71269 -3.84787 -6.56123
upperneck 6.15137 -5.19972 5.92024
head 2.84919 -2.57323 2.93626
rclavicle -3.04894e-014 -3.57812e-015
rhumerus -32.3996 3.02731 -80.2616
rradius 30.6279
rwrist 2.70398
rhand -19.9879 -27.8745
rfingers 7.12502
rthumb 6.35152 -57.7592
lclavicle -3.04894e-014 -3.57812e-015
lhumerus -26.7976 -4.21041 89.7968
lradius 24.9256
lwrist -30.2195
lhand -28.7039 30.1433
lfingers 7.12502
lthumb -2.06569 60.1131
rfemur -21.7954 -5.80279 13.6579
rtibia 47.2419
rfoot -25.6328 1.62981
rtoes -6.94905
lfemur -21.171 5.78469 -9.26926
ltibia 44.4523
lfoot -21.7315 0.165711
ltoes -8.08293
